<svg class="size-12" viewBox="0 0 239 265.193" xml:space="preserve" xmlns:xlink="http://www.w3.org/1999/xlink" xmlns="http://www.w3.org/2000/svg">
  <defs>
    <linearGradient id="c">
      <stop style="stop-color:#ff7301;stop-opacity:1" offset=".655"/>
      <stop style="stop-color:#c65900;stop-opacity:1" offset=".874"/>
    </linearGradient>
    <linearGradient id="b">
      <stop style="stop-color:#ff7400;stop-opacity:1" offset=".476"/>
      <stop style="stop-color:#a34900;stop-opacity:1" offset="1"/>
    </linearGradient>
    <linearGradient id="a">
      <stop style="stop-color:#ff7400;stop-opacity:1" offset=".406"/>
      <stop style="stop-color:#843c00;stop-opacity:1" offset="1"/>
    </linearGradient>
    <linearGradient xlink:href="#a" id="d" x1="-350.23" y1="99.64" x2="-354.479" y2="117.744" gradientUnits="userSpaceOnUse"/>
    <linearGradient xlink:href="#b" id="e" x1="-290.026" y1="97.907" x2="-291.504" y2="123.4" gradientUnits="userSpaceOnUse"/>
    <linearGradient xlink:href="#c" id="f" x1="-320.692" y1="125.247" x2="-320.692" y2="248.647" gradientUnits="userSpaceOnUse"/>
    <linearGradient xlink:href="#c" id="g" gradientUnits="userSpaceOnUse" x1="-320.692" y1="125.247" x2="-320.692" y2="248.647"/>
    <linearGradient xlink:href="#c" id="h" gradientUnits="userSpaceOnUse" x1="-320.692" y1="125.247" x2="-320.692" y2="248.647"/>
    <linearGradient xlink:href="#c" id="i" gradientUnits="userSpaceOnUse" x1="-320.692" y1="125.247" x2="-320.692" y2="248.647"/>
  </defs>
  <g transform="translate(-72.595 -11.904)">
    <circle style="opacity:1;fill:#000;fill-opacity:1;stroke:none;stroke-width:.999998;stroke-miterlimit:11.8;stroke-opacity:1" cy="157.597" cx="192.095" r="119.5"/>
    <circle style="opacity:1;fill:#fff;fill-opacity:1;stroke:none;stroke-width:1;stroke-miterlimit:11.8;stroke-opacity:1" cy="157.597" cx="192.095" r="111.154"/>
    <g transform="translate(518.61 -12.356)scale(1.02247)" style="stroke-width:.978026">
      <path style="opacity:1;fill:#ff7301;fill-opacity:1;stroke:none;stroke-width:.978026;stroke-miterlimit:11.8;stroke-opacity:1" d="m-356.168 72.621-18.549 40.874-36.927 11.006c11.561-20.7 26.694-40.824 55.476-51.88m-61.655 70.65 24.33 11.96c42.444 5.094 69.32 18.85 146.118-.685 20.935-6.412 18.83-6.716 26.794-11.275 8.597 75.142-26.124 122.505-99.145 127.115-84.942-6.264-111.51-77.454-98.097-127.115m134.02-70.65c33.037 12.171 48.741 31.247 55.214 51.734l-36.273-10.86z"/>
      <path style="opacity:1;fill:#fff;fill-opacity:1;stroke:none;stroke-width:.978026;stroke-miterlimit:11.8;stroke-opacity:1" d="M-394.28 158.559c-56.958-24.887-15.593-35.727 17.436-47.758 37.086-81.426 67.897-98.881 99.939-80.317 7.517 8.448-14.191 19.468-13.42 24.78.839 5.768 18.31 41.475 27.248 55.537 24.382 8.278 77.987 23.537 17.302 46.547z"/>
      <path style="opacity:1;fill:#000;fill-opacity:1;stroke:none;stroke-width:.978026;stroke-miterlimit:11.8;stroke-opacity:1" d="m-373.26 117.62 12.28-25.08h3.135c18.116-46.946 46.35-68.534 74.194-58.52 3.576 4.773-12.132 8.034-16.459 19.593l17.765 38.665 3.135-.522 2.351 9.143 9.144 16.981c23.795 7.64 70.452 20.946 19.071 33.179 26.48 69.786-28.215 96-48.07 99.797l-2.09-1.307c-10.917 9.81-37.954 3.9-43.105.262-15.936 3.52-75.64-27.76-50.682-97.185-40.335-12.242-20.975-23.743 17.503-35.007z"/>
      <path style="opacity:1;fill:url(#d);fill-opacity:1;stroke:none;stroke-width:.978026;stroke-miterlimit:11.8;stroke-opacity:1" d="m-356.141 99.64-8.867 19.766 23.83-2.586-.37-17.734z"/>
      <path style="opacity:1;fill:url(#e);fill-opacity:1;stroke:none;stroke-width:.978026;stroke-miterlimit:11.8;stroke-opacity:1" d="m-299.43 98.567.186 19.361 22.721.924-9.42-20.285z"/>
      <rect style="opacity:1;fill:#fff;fill-opacity:1;stroke:none;stroke-width:.978026;stroke-miterlimit:11.8;stroke-opacity:1" width="30.111" height="28.242" x="-335.452" y="91.142" ry="5.059" rx="5.059"/>
      <rect style="opacity:1;fill:#000;fill-opacity:1;stroke:none;stroke-width:.978026;stroke-miterlimit:11.8;stroke-opacity:1" width="18.473" height="17.549" x="-329.91" y="95.945" ry="0" rx="0"/>
      <rect style="opacity:1;fill:#ff7301;fill-opacity:1;stroke:none;stroke-width:.978026;stroke-miterlimit:11.8;stroke-opacity:1" width="7.204" height="6.096" x="-324.183" y="101.487" ry="0" rx="0"/>
      <g style="fill:url(#f);fill-opacity:1;stroke-width:.978026">
        <path style="opacity:1;fill:url(#g);fill-opacity:1;stroke:none;stroke-width:.978026;stroke-miterlimit:11.8;stroke-opacity:1" d="M-351.379 130.36c-38.81 54.585-14.02 89.134-1.306 111.817-37.25-8.48-66.554-91.453 1.306-111.817"/>
        <path style="fill:url(#h);fill-opacity:1;stroke:none;stroke-width:.978026;stroke-miterlimit:11.8;stroke-opacity:1" d="M-287.137 129.45c38.81 54.584 14.02 89.133 1.306 111.817 37.25-8.48 66.554-91.453-1.306-111.817"/>
        <path style="opacity:1;fill:url(#i);fill-opacity:1;stroke:none;stroke-width:.978026;stroke-miterlimit:11.8;stroke-opacity:1" d="M-342.757 130.36c6.238-1.882 12.92-3.41 22.596-2.542 11.26-.218 15.788 1.489 22.6 2.542 46.547 44.832 17.593 115.442-19.333 117.826-42.957 6.418-70.75-79.056-25.863-117.826"/>
      </g>
      <ellipse style="fill:#000;fill-opacity:1;stroke:none;stroke-width:.978026;stroke-miterlimit:11.8;stroke-opacity:1" cx="-345.776" cy="166.037" rx="12.932" ry="13.062"/>
      <ellipse style="fill:#000;fill-opacity:1;stroke:none;stroke-width:.978026;stroke-miterlimit:11.8;stroke-opacity:1" cx="-293.905" cy="165.772" rx="12.932" ry="13.062"/>
      <path style="fill:#000;fill-opacity:1;stroke:none;stroke-width:.978026;stroke-miterlimit:11.8;stroke-opacity:1" d="M-354.006 190.333c22.38-2.991 44.76-2.381 67.141-.523 6.564 11.013-4.82 31.224-30.566 33.44-16.796 2.192-45.149-18.806-36.575-32.917"/>
      <ellipse style="fill:#000;fill-opacity:1;stroke:none;stroke-width:.978026;stroke-miterlimit:11.8;stroke-opacity:1" cx="-319.645" cy="176.659" rx="6.531" ry="4.572"/>
    </g>
  </g>
</svg>
