<svg  viewBox="0 0 91.087 129.148" xml:space="preserve" xmlns="http://www.w3.org/2000/svg">
  <path style="fill:#f95;stroke-width:1" d="M-17.941 203.807c-18.115-1.228-33.635-18.174-32.675-36.432-.248-10.535-.71-21.19.657-31.644 2.5-7.32 12.387-11.188 18.944-6.762 5.447.017 8.183-7.613 14.394-5.95 4.477-1.055 10.21 7.889 11.214.39-.326-5.665-4.212-10.348-6.094-15.596-2.338-5.299-5.999-10.76-5.194-16.777 1.497-7.526 10.169-12.5 17.404-9.788 4.689.25 6.77 9.206 9.769 8.061 2.912-6.316 10.434-10.484 17.186-7.828 6.841 2.37 10.4 10.88 7.237 17.435-2.867 6.98-6.378 13.683-9.479 20.553-2.173 6.569 3.866 12.06 5.673 18.027 3.907 7.93 5.56 16.731 5.31 25.532.094 12.35-3.485 26.05-14.129 33.47-11.569 8.234-26.629 8.47-40.217 7.31" transform="translate(53.683 -77.287)"/>
  <path style="fill:#000" d="M92.823 204.789c-18.896-1.281-35.084-18.957-34.083-38.002-.259-10.989-.741-22.103.686-33.008 2.608-7.634 12.92-11.67 19.76-7.053 5.681.018 8.536-7.94 15.014-6.205 4.67-1.1 10.65 8.228 11.697.407-.34-5.91-4.394-10.794-6.357-16.27-2.439-5.526-6.257-11.223-5.417-17.5 1.562-7.85 10.607-13.038 18.153-10.208 4.891.261 7.063 9.602 10.19 8.408 3.038-6.588 10.884-10.936 17.926-8.166 7.137 2.473 10.85 11.349 7.55 18.187-2.991 7.28-6.653 14.272-9.888 21.438-2.266 6.852 4.032 12.58 5.917 18.804 4.076 8.271 5.8 17.452 5.54 26.632.097 12.881-3.636 27.172-14.738 34.912-12.067 8.589-27.776 8.835-41.95 7.624m24.55-6.496c11.727-1.434 21.994-10.646 24.256-22.316 1.784-7.154 1.62-14.598 1.238-21.905-1.977-5.59-7.739-9.349-13.665-8.154-8.388.062-16.916-.731-25.188.974-6.22 3.07-3.522 14.083 3.684 13.364 5.86.78 11.898-.377 17.644 1.335 2.473 7.602-8.848 4.724-13.165 5.248-5.946 1.594-10.707-3.717-16.091-2.595-4.95 1.584-9.294-1.363-13.301-3.72-4.591 3.974-10.907 4.68-17.044 3.265-2.7 5.91.705 15.545 4.559 21.502 5.926 9.475 17.32 14.004 28.19 13.445 6.292-.227 12.61.155 18.883-.443m-42.354-40.249c6.414-4.307 5.35-13.277 4.598-19.948-.487-7.56-12.337-10.792-14.001-2.16-.845 6.704-2 14.34 1.44 20.514 1.8 2.964 5.168 2.693 7.963 1.594m20.134.048c-1.86-6.062.684-12.557 5.387-16.45.835-5.194.454-12.366-4.976-14.956-7.923-2.478-10.55 7.755-9.815 13.687.115 6.153-1.313 15.877 6.296 18.042 1.008.297 2.244.413 3.108-.323m44.018-17.898c-8.417-18.414-16.656-36.94-25.696-55.048-4.423-6.201-16.082-1.14-13.074 6.48 2.339 6.072 5.44 11.844 8.036 17.826 4.607 9.968 9.227 19.931 13.94 29.851 5.496-.26 11.875.84 16.761 1.021zm-24.072-1.354c-1.04-3.102-4.595-14.356-7.35-6.852-2.167 5.744.126 9.978 7.35 6.852m18.889-27.781c4.39-7.384 8.982-15.635 8.09-24.516-2.858-8.32-13.688-3.233-15.128 3.445-3.378 6.083 1.587 11.61 3.629 17.053.708 1.387 1.309 4.384 3.409 4.018" transform="translate(-58.448 -76.169)"/>
</svg>
